HIERARCHY
ROOT Hips
{
	OFFSET 0.00000 0.00000 0.00000
	CHANNELS 6 Xposition Yposition Zposition Zrotation Yrotation Xrotation 
	JOINT LHipJoint
	{
		OFFSET 0 0 0
		CHANNELS 3 Zrotation Yrotation Xrotation
		JOINT LeftUpLeg
		{
			OFFSET 1.41496 -1.84582 0.78394
			CHANNELS 3 Zrotation Yrotation Xrotation
			JOINT LeftLeg
			{
				OFFSET 2.58040 -7.08960 0.00000
				CHANNELS 3 Zrotation Yrotation Xrotation
				JOINT LeftFoot
				{
					OFFSET 2.64719 -7.27309 0.00000
					CHANNELS 3 Zrotation Yrotation Xrotation
					JOINT LeftToeBase
					{
						OFFSET 0.20718 -0.56921 2.20259
						CHANNELS 3 Zrotation Yrotation Xrotation
						End Site
						{
							OFFSET 0.00000 -0.00000 1.14243
						}
					}
				}
			}
		}
	}
	JOINT RHipJoint
	{
		OFFSET 0 0 0
		CHANNELS 3 Zrotation Yrotation Xrotation
		JOINT RightUpLeg
		{
			OFFSET -1.40551 -1.84582 0.78394
			CHANNELS 3 Zrotation Yrotation Xrotation
			JOINT RightLeg
			{
				OFFSET -2.56572 -7.04926 0.00000
				CHANNELS 3 Zrotation Yrotation Xrotation
				JOINT RightFoot
				{
					OFFSET -2.57974 -7.08778 0.00000
					CHANNELS 3 Zrotation Yrotation Xrotation
					JOINT RightToeBase
					{
						OFFSET -0.26704 -0.73369 2.20815
						CHANNELS 3 Zrotation Yrotation Xrotation
						End Site
						{
							OFFSET -0.00000 -0.00000 1.16246
						}
					}
				}
			}
		}
	}
	JOINT LowerBack
	{
		OFFSET 0 0 0
		CHANNELS 3 Zrotation Yrotation Xrotation
		JOINT Spine
		{
			OFFSET -0.04690 2.05196 -0.07017
			CHANNELS 3 Zrotation Yrotation Xrotation
			JOINT Spine1
			{
				OFFSET 0.04085 2.05260 0.00800
				CHANNELS 3 Zrotation Yrotation Xrotation
				JOINT Neck
				{
					OFFSET 0 0 0
					CHANNELS 3 Zrotation Yrotation Xrotation
					JOINT Neck1
					{
						OFFSET -0.03582 1.80995 0.19301
						CHANNELS 3 Zrotation Yrotation Xrotation
						JOINT Head
						{
							OFFSET 0.00952 1.80195 -0.36389
							CHANNELS 3 Zrotation Yrotation Xrotation
							End Site
							{
								OFFSET 0.00392 1.85062 -0.14494
							}
						}
					}
				}
				JOINT LeftShoulder
				{
					OFFSET 0 0 0
					CHANNELS 3 Zrotation Yrotation Xrotation
					JOINT LeftArm
					{
						OFFSET 3.55224 1.39726 -0.13667
						CHANNELS 3 Zrotation Yrotation Xrotation
						JOINT LeftForeArm
						{
							OFFSET 5.14507 -0.00000 -0.00000
							CHANNELS 3 Zrotation Yrotation Xrotation
							JOINT LeftHand
							{
								OFFSET 3.50646 -0.00000 0.00000
								CHANNELS 3 Zrotation Yrotation Xrotation
								JOINT LeftFingerBase
								{
									OFFSET 0 0 0
									CHANNELS 3 Zrotation Yrotation Xrotation
									JOINT LeftHandIndex1
									{
										OFFSET 0.62997 -0.00000 0.00000
										CHANNELS 3 Zrotation Yrotation Xrotation
										End Site
										{
											OFFSET 0.50790 -0.00000 0.00000
										}
									}
								}
								JOINT LThumb
								{
									OFFSET 0 0 0
									CHANNELS 3 Zrotation Yrotation Xrotation
									End Site
									{
										OFFSET 0.51565 -0.00000 0.51565
									}
								}
							}
						}
					}
				}
				JOINT RightShoulder
				{
					OFFSET 0 0 0
					CHANNELS 3 Zrotation Yrotation Xrotation
					JOINT RightArm
					{
						OFFSET -3.06467 1.61290 -0.28813
						CHANNELS 3 Zrotation Yrotation Xrotation
						JOINT RightForeArm
						{
							OFFSET -5.23200 -0.00000 -0.00000
							CHANNELS 3 Zrotation Yrotation Xrotation
							JOINT RightHand
							{
								OFFSET -3.65641 -0.00000 0.00000
								CHANNELS 3 Zrotation Yrotation Xrotation
								JOINT RightFingerBase
								{
									OFFSET 0 0 0
									CHANNELS 3 Zrotation Yrotation Xrotation
									JOINT RightHandIndex1
									{
										OFFSET -0.65681 -0.00000 0.00000
										CHANNELS 3 Zrotation Yrotation Xrotation
										End Site
										{
											OFFSET -0.52953 -0.00000 0.00000
										}
									}
								}
								JOINT RThumb
								{
									OFFSET 0 0 0
									CHANNELS 3 Zrotation Yrotation Xrotation
									End Site
									{
										OFFSET -0.53762 -0.00000 0.53762
									}
								}
							}
						}
					}
				}
			}
		}
	}
}
MOTION
Frames: 12
Frame Time: 0.0666667
0.00 0.00 0.00 0 0 0 0 0 0 -21 0 0 0 0 0 0 0 0 0 0 0 0 0 0 21 0 0 0 0 0 0 0 0 0 0 0 0 0 0 0 0 0 0 0 0 0 0 -16 0 0 21 0 0 11 0 0 0 -8 0 0 0 0 0 0 0 0 0 0 0 0 0 0 0 0 0 0 0 0 8 0 0 0 0 0 0 0 0 0 0 0 0 0 0 0 0 0
0.00 0.00 0.00 3.1253 6.9495 20.5516 0.0000 0.0000 0.0000 -14.5300 -11.2571 -40.0446 21.4620 19.9487 94.2780 -0.1359 -7.3553 -0.9387 0.2161 -2.9926 -8.2582 0.0000 0.0000 0.0000 18.9836 6.2461 -32.4066 -9.2764 -16.9823 57.0410 -2.0012 -8.7075 -31.0172 -5.5711 13.9995 -43.2352 2.0815 -1.8968 18.5621 2.4213 -1.7946 0.3601 1.9419 -0.8770 -10.0327 -4.3632 -2.6378 -16.9575 -0.5568 -2.5738 2.2219 0.3765 -1.3633 3.8297 0.0000 0.0000 0.0000 -88.2664 17.0042 33.6355 78.6232 -59.5052 -50.1638 -0.0000 0.0000 -13.4165 23.9462 -8.2237 -3.6347 -7.1250 0.0000 -0.0000 -2.1065 20.9964 1.2127 0.0000 0.0000 0.0000 87.0054 -21.8352 26.3080 -82.3899 59.7800 -53.4143 0.0000 -0.0000 -10.4515 -32.2695 4.4561 -2.8086 7.1250 -0.0000 -0.0000 -4.2036 -24.7142 -2.0664
0.00 0.00 0.00 1.7270 7.8742 20.0304 0.0000 0.0000 0.0000 -9.5258 -10.6915 -51.8926 22.3660 19.8653 96.9326 0.0441 -4.9361 -4.7871 0.0564 -1.5325 -4.2153 0.0000 0.0000 0.0000 22.3894 4.1825 -24.0477 -8.0484 -16.1547 52.7367 -1.8361 -8.9663 -30.1504 -6.0315 14.4588 -45.1081 3.2934 -1.7637 17.6993 2.4326 -1.4033 0.2693 1.1349 -0.7513 -9.6855 -4.2430 -3.0319 -16.7697 0.0296 -3.1639 3.3000 0.4337 -1.6320 3.7171 0.0000 -0.0000 0.0000 -86.4581 24.8835 34.2451 85.0564 -59.9075 -55.7201 -0.0000 0.0000 -18.1428 22.0929 -8.7150 -3.5195 -7.1250 0.0000 -0.0000 -3.4566 20.5940 2.0235 0.0000 -0.0000 0.0000 85.2360 -19.1458 31.6959 -99.1434 59.6817 -67.9100 0.0000 -0.0000 -9.0416 -31.0454 5.6193 -3.3732 7.1250 -0.0000 -0.0000 -3.2102 -23.4308 -1.6715
0.00 0.00 0.00 1.1770 8.1775 19.2709 0.0000 0.0000 0.0000 -6.4934 -10.6472 -60.4581 21.0328 19.9744 93.0211 0.1214 -4.5915 -6.5288 0.0097 -0.6359 -1.7473 0.0000 0.0000 0.0000 23.8863 1.9814 -15.7408 -6.8698 -15.2212 48.3801 -1.2891 -6.6928 -24.8188 -6.4430 14.8443 -46.7346 3.5029 -1.1556 16.6416 2.1089 -0.6554 0.4310 0.4451 -0.4090 -8.9115 -4.4207 -3.8572 -16.3663 0.9289 -4.3170 3.9717 0.6449 -2.1601 3.9094 0.0000 -0.0000 0.0000 -84.2477 31.9734 35.9769 95.9535 -59.8656 -65.1535 -0.0000 0.0000 -20.9004 19.7883 -8.5255 -3.0532 -7.1250 0.0000 -0.0000 -5.1161 20.9436 2.9610 0.0000 -0.0000 0.0000 82.7854 -17.9653 35.9351 -115.9418 57.2978 -82.2624 0.0000 -0.0000 -8.7545 -29.6454 6.8715 -3.8954 7.1250 -0.0000 -0.0000 -2.0975 -22.0874 -1.1556
0.00 0.00 0.00 0.7987 7.9587 17.6621 0.0000 0.0000 0.0000 -2.7194 -12.2575 -65.2837 16.3880 19.6843 79.3857 0.0021 -8.9995 -6.3467 0.2790 -3.3971 -9.3863 0.0000 0.0000 0.0000 24.1605 0.6119 -5.8019 -5.9375 -14.3675 44.7304 -0.1748 -1.9010 -8.8349 -5.2123 13.6190 -41.7321 3.2137 0.1445 15.3327 1.6897 0.8852 0.9438 -0.2081 0.3509 -7.5836 -5.2055 -5.2915 -15.7930 2.1545 -6.2222 5.5539 0.9744 -3.0533 4.4234 0.0000 0.0000 0.0000 -81.9693 38.9790 37.7485 106.6477 -58.9265 -74.3654 -0.0000 0.0000 -20.3770 17.4095 -8.8720 -2.7687 -7.1250 0.0000 -0.0000 -6.8276 20.7187 3.9987 0.0000 0.0000 0.0000 79.7040 -17.8790 38.0204 -130.2829 52.8808 -94.0516 0.0000 -0.0000 -6.5347 -28.7963 9.5097 -5.1890 7.1250 -0.0000 -0.0000 -1.3008 -19.1595 -0.8020
0.00 0.00 0.00 1.3616 7.6708 15.6167 0.0000 0.0000 0.0000 2.0954 -16.6278 -62.7316 10.2016 17.5217 60.1602 -0.4187 -12.2218 -0.2691 1.2523 -7.0948 -19.9965 0.0000 0.0000 0.0000 23.9039 1.2712 0.5620 -6.6933 -15.0681 47.7048 -0.0065 -3.5136 2.7566 -3.2575 11.1006 -32.6199 1.5079 1.1510 14.4466 1.3514 1.8557 1.6092 0.2119 0.8842 -6.3931 -5.9220 -6.2459 -15.0823 3.1237 -7.5298 7.3608 1.2561 -3.6612 4.9877 -0.0000 0.0000 0.0000 -82.5492 43.4326 36.5237 114.1554 -57.6762 -80.7560 -0.0000 0.0000 -19.4245 16.4840 -9.7003 -2.8544 -7.1250 0.0000 -0.0000 -7.4794 19.9146 4.5228 -0.0000 0.0000 0.0000 78.5308 -18.4377 37.4586 -133.7668 51.3585 -96.8020 0.0000 -0.0000 -6.8739 -29.5236 9.8914 -5.5564 7.1250 -0.0000 -0.0000 -1.7854 -18.6514 -1.1212
0.00 0.00 0.00 1.8404 7.4095 13.5048 0.0000 0.0000 0.0000 7.9310 -22.0383 -56.3768 5.7655 14.1971 44.0330 -0.3170 -9.9936 4.9517 1.7368 -8.2948 -23.6131 0.0000 0.0000 0.0000 24.5212 2.0765 0.4412 -10.3929 -17.6249 60.7936 0.3925 -11.5494 -0.5679 -2.7353 10.2536 -29.8020 -0.2473 1.5711 14.2149 0.9512 2.1006 2.1614 0.7457 1.0432 -5.7249 -6.1579 -6.5437 -14.4794 4.2528 -8.0961 8.8205 1.5836 -3.8725 5.4341 -0.0000 0.0000 0.0000 -84.3984 44.3527 33.9910 119.9689 -56.3182 -85.6331 -0.0000 0.0000 -17.8704 16.2978 -10.0103 -2.9094 -7.1250 0.0000 -0.0000 -7.6079 19.6064 4.6548 -0.0000 0.0000 0.0000 80.3961 -20.0562 35.3082 -128.1333 53.7212 -92.3280 0.0000 -0.0000 -9.4125 -28.9129 7.3492 -4.0413 7.1250 -0.0000 -0.0000 -1.5337 -21.5992 -0.8618
0.00 0.00 0.00 2.7275 5.8902 11.2922 0.0000 0.0000 0.0000 8.8017 -22.8221 -51.0056 5.4160 13.8375 42.5903 -0.3710 -11.3068 0.3242 2.0934 -9.0579 -25.9765 0.0000 0.0000 0.0000 23.4284 2.2547 -5.4784 -16.4353 -19.6926 79.5261 0.9073 -16.6035 -7.1902 -1.9097 8.6755 -24.7854 -2.0428 1.6460 15.1089 0.0849 1.8542 2.6504 0.8790 0.9469 -5.7192 -5.8815 -6.1732 -14.2572 5.2871 -7.8328 9.6551 1.8865 -3.6587 5.6817 0.0000 -0.0000 0.0000 -85.8382 41.4737 32.6914 123.7732 -55.2177 -88.7788 -0.0000 0.0000 -17.6521 16.7826 -9.8465 -2.9524 -7.1250 0.0000 -0.0000 -7.2652 19.7461 4.4188 0.0000 -0.0000 0.0000 84.2691 -22.4596 32.3537 -114.2009 57.6670 -80.7944 0.0000 -0.0000 -10.3354 -27.9845 4.8598 -2.5775 7.1250 -0.0000 -0.0000 -0.9830 -24.4803 -0.4874
0.00 0.00 0.00 7.6936 3.9821 8.5872 0.0000 0.0000 0.0000 1.7601 -19.3945 -47.0032 7.9260 16.0645 52.2956 -0.7020 -19.7432 -6.9368 2.3861 -9.6279 -27.7799 0.0000 0.0000 0.0000 16.2358 1.0847 -15.7791 -22.5415 -19.8444 97.4495 0.2543 -11.8151 -12.6180 -1.8566 8.5609 -24.4310 -7.8247 1.5909 19.0171 -1.5889 0.4046 3.3550 2.6292 0.3608 -7.0502 -5.7919 -5.1851 -14.2740 5.9852 -6.5733 8.8113 2.2249 -2.9996 5.3717 0.0000 0.0000 0.0000 -86.5925 34.2650 33.7015 125.2491 -54.7407 -89.9875 -0.0000 0.0000 -18.7553 17.3516 -9.5563 -2.9694 -7.1250 0.0000 -0.0000 -6.8623 20.0122 4.1290 0.0000 0.0000 0.0000 88.2700 -24.4539 28.6212 -93.1812 59.9617 -62.7546 0.0000 -0.0000 -12.0449 -28.7240 3.8344 -2.0988 7.1250 -0.0000 -0.0000 -1.5817 -25.6089 -0.7429
0.00 0.00 0.00 13.6515 2.9617 7.8285 0.0000 0.0000 0.0000 -5.3583 -15.0199 -41.6316 10.0527 17.4394 59.6644 -1.5952 -30.7252 -12.1725 1.7952 -8.4257 -24.0148 0.0000 0.0000 0.0000 7.3649 -1.2734 -36.3837 -26.6780 -18.8953 109.8775 -0.7947 -1.4693 -17.4327 -2.8095 10.3801 -30.2167 -13.0572 0.8499 22.3624 -3.7575 -2.2714 3.9563 3.9043 -0.7948 -7.7535 -5.7546 -3.8677 -14.5162 6.3636 -4.7232 6.1635 2.5191 -2.0842 4.4872 0.0000 0.0000 0.0000 -84.2720 19.7138 38.0346 124.1943 -55.0845 -89.1244 -0.0000 0.0000 -15.9895 19.6103 -8.8624 -3.1418 -7.1250 0.0000 -0.0000 -5.2454 20.5992 3.0773 0.0000 0.0000 0.0000 92.2814 -27.2310 23.5217 -69.2395 58.3071 -42.1231 0.0000 -0.0000 -16.1315 -33.2999 4.4147 -2.8945 7.1250 -0.0000 -0.0000 -4.9742 -24.7027 -2.4490
0.00 0.00 0.00 18.6591 2.3658 9.2643 0.0000 0.0000 0.0000 -13.0213 -10.3008 -25.3170 9.0458 16.8371 56.2484 1.1293 -29.8452 -26.9268 1.9969 -8.8597 -25.3575 0.0000 0.0000 0.0000 2.3099 -0.0594 -65.1815 -23.0372 -19.7774 98.9118 -1.1084 -1.2370 -20.3754 -3.7981 11.8867 -35.3325 -13.8046 -1.3936 23.1277 -5.2307 -5.7070 3.3442 3.6502 -2.3462 -8.3923 -6.4040 -2.7059 -15.4181 4.4931 -2.7989 6.3877 2.1962 -1.2587 4.5583 0.0000 -0.0000 0.0000 -82.1924 0.8703 38.3704 127.5477 -53.9379 -91.8552 -0.0000 0.0000 -16.5046 21.0643 -8.1435 -3.1228 -7.1250 0.0000 -0.0000 -4.1911 21.2716 2.3914 0.0000 -0.0000 0.0000 91.9895 -36.6953 18.4147 -66.7709 57.8596 -40.0276 0.0000 -0.0000 -16.7681 -31.8292 8.1556 -5.0324 7.1250 -0.0000 -0.0000 -3.5724 -20.4143 -2.1060
0.00 0.00 0.00 20.0966 -1.3451 8.2557 0.0000 0.0000 0.0000 -15.9457 -11.4424 -13.3599 8.5260 16.4928 54.4359 -0.1508 -23.4941 -15.4887 3.6406 -11.6661 -34.5609 0.0000 0.0000 0.0000 1.6680 4.3391 -68.0512 -16.8944 -19.7672 80.8858 -0.7695 -2.9668 -17.9033 -3.1067 10.8658 -31.8285 -13.4551 -1.5038 22.5130 -5.8196 -5.7053 3.5444 2.7734 -2.4118 -7.9429 -5.8084 -1.9507 -16.2599 3.1165 -1.7153 6.4992 1.7583 -0.7930 4.6476 -0.0000 -0.0000 0.0000 -80.2470 0.1658 29.0945 125.4154 -54.6851 -90.1232 -0.0000 0.0000 -17.4542 20.9841 -7.7055 -2.9439 -7.1250 0.0000 -0.0000 -4.2459 21.7429 2.3774 -0.0000 -0.0000 0.0000 88.5509 -35.5543 17.6819 -70.2938 58.4806 -43.0210 0.0000 -0.0000 -15.7540 -31.8048 7.3362 -4.5276 7.1250 -0.0000 -0.0000 -3.6277 -21.3725 -2.0602
